<?xml version="1.0" encoding="utf-8"?>
<!-- Generator: Adobe Illustrator 19.0.0, SVG Export Plug-In . SVG Version: 6.00 Build 0)  -->
<svg version="1.1" id="Layer_1" xmlns="http://www.w3.org/2000/svg" xmlns:xlink="http://www.w3.org/1999/xlink" x="0px" y="0px"
	 viewBox="0 0 500 500" style="enable-background:new 0 0 500 500;" xml:space="preserve">
<style type="text/css">
	.st0{fill:#003087;}
	.st1{fill:#009CDE;}
	.st2{fill:#012169;}
</style>
<g id="XMLID_1_">
	<g transform="translate(32.4187,40.9816)">
		<path id="XMLID_15_" class="st0" d="M97.1,168.1c-4.5-5.1-12.5-7.3-22.9-7.3h-30c-2.1,0-3.9,1.5-4.2,3.6l-12.5,79.1
			c-0.2,1.6,1,3,2.5,3h18.5l4.6-29.5l-0.1,0.9c0.3-2.1,2.1-3.6,4.2-3.6h8.8c17.3,0,30.8-7,34.7-27.3c0.1-0.6,0.2-1.2,0.3-1.8
			C102.4,177.8,101.2,172.7,97.1,168.1"/>
	</g>
	<g transform="translate(117.3312,26.8632)">
		<path class="st1" d="M238.6,219.9c-1.1,7.4-6.8,7.4-12.3,7.4h-3.1l2.2-13.9c0.1-0.8,0.9-1.5,1.7-1.5h1.4c3.7,0,7.3,0,9.1,2.1
			C238.7,215.4,239,217.2,238.6,219.9 M236.2,200.5h-20.7c-1.4,0-2.6,1-2.8,2.4l-8.4,53c-0.2,1,0.6,2,1.7,2h10.6c1,0,1.8-0.7,2-1.7
			l2.4-15c0.2-1.4,1.4-2.4,2.8-2.4h6.5c13.6,0,21.5-6.6,23.5-19.7c0.9-5.7,0-10.2-2.6-13.3C248.3,202.3,243.1,200.5,236.2,200.5"/>
	</g>
	<g transform="translate(62.0115,26.8632)">
		<path class="st0" d="M146.4,219.9c-1.1,7.4-6.8,7.4-12.3,7.4H131l2.2-13.9c0.1-0.8,0.9-1.5,1.7-1.5h1.4c3.7,0,7.3,0,9.1,2.1
			C146.5,215.4,146.8,217.2,146.4,219.9 M144,200.5h-20.7c-1.4,0-2.6,1-2.8,2.4l-8.4,53c-0.2,1,0.6,2,1.7,2h9.9c1.4,0,2.6-1,2.8-2.4
			l2.3-14.3c0.2-1.4,1.4-2.4,2.8-2.4h6.5c13.6,0,21.5-6.6,23.5-19.7c0.9-5.7,0-10.2-2.6-13.3C156.2,202.3,151,200.5,144,200.5"/>
	</g>
	<g transform="translate(79.1228,19.7234)">
		<path class="st0" d="M174.9,246c-1,5.7-5.4,9.5-11.2,9.5c-2.9,0-5.2-0.9-6.6-2.7c-1.5-1.7-2-4.2-1.6-7c0.9-5.6,5.5-9.5,11.1-9.5
			c2.8,0,5.1,0.9,6.6,2.7C174.8,240.8,175.4,243.3,174.9,246 M188.7,226.8h-9.9c-0.8,0-1.6,0.6-1.7,1.5l-0.4,2.8l-0.7-1
			c-2.1-3.1-6.9-4.2-11.7-4.2c-10.9,0-20.3,8.3-22.1,19.9c-0.9,5.8,0.4,11.3,3.7,15.2c3,3.6,7.3,5,12.5,5c8.8,0,13.7-5.7,13.7-5.7
			l-0.4,2.8c-0.2,1,0.6,2,1.7,2h8.9c1.4,0,2.6-1,2.8-2.4l5.4-33.9C190.6,227.7,189.8,226.8,188.7,226.8"/>
	</g>
	<g transform="translate(134.4426,19.7234)">
		<path class="st1" d="M267.1,246c-1,5.7-5.4,9.5-11.2,9.5c-2.9,0-5.2-0.9-6.6-2.7c-1.5-1.7-2-4.2-1.6-7c0.9-5.6,5.5-9.5,11.1-9.5
			c2.8,0,5.1,0.9,6.6,2.7C266.9,240.8,267.5,243.3,267.1,246 M280.9,226.8H271c-0.8,0-1.6,0.6-1.7,1.5l-0.4,2.8l-0.7-1
			c-2.1-3.1-6.9-4.2-11.7-4.2c-10.9,0-20.3,8.3-22.1,19.9c-0.9,5.8,0.4,11.3,3.7,15.2c3,3.6,7.3,5,12.5,5c8.8,0,13.7-5.7,13.7-5.7
			l-0.4,2.8c-0.2,1,0.6,2,1.7,2h8.9c1.4,0,2.6-1,2.8-2.4l5.4-33.9C282.8,227.7,282,226.8,280.9,226.8"/>
	</g>
	<g transform="translate(104.0795,26.9523)">
		<path id="XMLID_6_" class="st0" d="M216.5,219.5h-10c-1,0-1.8,0.5-2.4,1.3L190.5,241l-5.8-19.4c-0.4-1.2-1.5-2.1-2.8-2.1h-9.8
			c-1.2,0-2,1.2-1.6,2.3l11,32.2l-10.3,14.5c-0.8,1.1,0,2.7,1.4,2.7h9.9c0.9,0,1.8-0.5,2.4-1.2l33.1-47.8
			C218.7,221.1,217.9,219.5,216.5,219.5"/>
	</g>
	<g transform="translate(143.996,33.5807)">
		<path id="XMLID_5_" class="st1" d="M283,195.2l-8.5,54c-0.2,1,0.6,2,1.7,2h8.5c1.4,0,2.6-1,2.8-2.4l8.4-53c0.2-1-0.6-2-1.7-2h-9.5
			C283.9,193.8,283.2,194.4,283,195.2"/>
	</g>
	<g transform="translate(32.4187,40.9816)">
		<path id="XMLID_4_" class="st0" d="M97.1,168.1c-4.5-5.1-12.5-7.3-22.9-7.3h-30c-2.1,0-3.9,1.5-4.2,3.6l-12.5,79.1
			c-0.2,1.6,1,3,2.5,3h18.5l4.6-29.5l-0.1,0.9c0.3-2.1,2.1-3.6,4.2-3.6h8.8c17.3,0,30.8-7,34.7-27.3c0.1-0.6,0.2-1.2,0.3-1.8
			C102.4,177.8,101.2,172.7,97.1,168.1"/>
	</g>
	<g transform="translate(17.8489,34.4853)">
		<path id="XMLID_3_" class="st0" d="M72.9,191.9c0.2-1.3,1-2.3,2.1-2.8c0.5-0.2,1-0.4,1.6-0.4H100c2.8,0,5.4,0.2,7.7,0.6
			c0.7,0.1,1.3,0.2,2,0.4c0.6,0.1,1.3,0.3,1.9,0.5c0.3,0.1,0.6,0.2,0.9,0.3c1.2,0.4,2.3,0.8,3.2,1.4c1.2-7.5,0-12.6-4.1-17.2
			c-4.5-5.1-12.5-7.3-22.9-7.3h-30c-2.1,0-3.9,1.5-4.2,3.6L42.2,250c-0.2,1.6,1,3,2.5,3h18.5l4.6-29.5L72.9,191.9z"/>
	</g>
	<g transform="translate(33.9429,34.5226)">
		<path id="XMLID_16_" class="st1" d="M99.7,191.8L99.7,191.8c-0.1,0.6-0.2,1.2-0.3,1.8c-3.9,20.3-17.5,27.3-34.7,27.3h-8.8
			c-2.1,0-3.9,1.5-4.2,3.6L47.1,253l-1.3,8.1c-0.2,1.4,0.8,2.6,2.2,2.6h15.6c1.8,0,3.4-1.3,3.7-3.2l0.2-0.8l2.9-18.6l0.2-1
			c0.3-1.8,1.9-3.2,3.7-3.2h2.3c15.1,0,26.9-6.1,30.4-23.9c1.4-7.4,0.7-13.6-3.1-18C102.8,193.7,101.3,192.7,99.7,191.8"/>
	</g>
	<g transform="translate(32.3922,35.1407)">
		<path id="XMLID_17_" class="st2" d="M97.1,189.5c-0.6-0.2-1.2-0.3-1.9-0.5c-0.6-0.1-1.3-0.3-2-0.4c-2.4-0.4-5-0.6-7.7-0.6H62
			c-0.6,0-1.1,0.1-1.6,0.4c-1.1,0.5-1.9,1.5-2.1,2.8l-5,31.6l-0.1,0.9c0.3-2.1,2.1-3.6,4.2-3.6h8.8c17.3,0,30.8-7,34.7-27.3
			c0.1-0.6,0.2-1.2,0.3-1.8c-1-0.5-2.1-1-3.2-1.4C97.7,189.7,97.4,189.6,97.1,189.5"/>
	</g>
</g>
</svg>
